<?xml version="1.0" standalone="no"?>
<!DOCTYPE svg PUBLIC "-//W3C//DTD SVG 20010904//EN"
 "http://www.w3.org/TR/2001/REC-SVG-20010904/DTD/svg10.dtd">
<svg version="1.0" xmlns="http://www.w3.org/2000/svg"
 width="192.000000pt" height="192.000000pt" viewBox="0 0 192.000000 192.000000"
 preserveAspectRatio="xMidYMid meet">
<metadata>
Created by potrace 1.14, written by Peter Selinger 2001-2017
</metadata>
<g transform="translate(0.000000,192.000000) scale(0.100000,-0.100000)"
fill="#000000" stroke="none">
<path d="M703 1867 c-87 -91 -171 -249 -180 -340 -17 -168 98 -292 317 -342
114 -26 319 -32 400 -11 200 51 325 195 305 352 -11 87 -75 204 -163 296 -41
43 -80 78 -87 78 -6 0 -49 -34 -96 -76 -46 -42 -100 -88 -121 -101 l-36 -24
-124 87 c-67 48 -135 95 -149 105 l-26 18 -40 -42z m201 -142 l137 -97 55 36
c30 20 87 66 126 103 l72 66 56 -59 c61 -66 112 -154 131 -227 35 -141 -74
-274 -260 -317 -77 -18 -292 -7 -395 19 -224 59 -297 195 -208 386 41 87 120
198 137 192 7 -3 74 -49 149 -102z"/>
<path d="M755 1642 c-55 -11 -113 -111 -101 -175 16 -87 155 -136 249 -88 37
19 37 19 51 0 7 -11 32 -40 55 -64 50 -54 63 -51 112 24 32 50 32 50 60 36 33
-17 116 -20 156 -4 42 15 82 58 89 94 7 40 -28 128 -64 155 -14 12 -40 20 -62
20 -56 0 -105 -49 -173 -173 -32 -59 -62 -109 -67 -112 -9 -5 -54 51 -142 175
-25 36 -55 73 -65 83 -24 21 -70 35 -98 29z m101 -125 c24 -32 44 -63 44 -68
0 -32 -109 -39 -157 -9 -37 22 -41 42 -19 94 30 72 71 67 132 -17z m496 17
c24 -54 15 -88 -28 -104 -33 -13 -100 -13 -125 1 -19 10 -19 11 8 60 32 59 66
89 100 89 19 0 28 -10 45 -46z"/>
<path d="M571 1164 c-104 -114 -207 -348 -260 -595 -30 -138 -51 -327 -51
-452 l0 -108 28 3 27 3 7 155 c17 411 142 803 311 978 l41 42 -20 21 -21 20
-62 -67z"/>
<path d="M1335 1143 c-79 -28 -216 -45 -299 -38 l-78 7 8 -54 c15 -91 10 -286
-10 -358 -25 -95 -97 -236 -157 -308 -100 -121 -254 -210 -391 -227 -53 -7
-58 -10 -58 -31 0 -35 19 -38 105 -21 298 61 536 345 578 690 l11 97 54 0 c29
0 85 7 123 16 69 16 70 17 64 42 -4 15 -7 28 -8 29 -1 1 -29 -5 -62 -13 -33
-7 -85 -14 -116 -14 -50 0 -57 3 -63 23 -16 60 -13 62 82 64 78 1 157 15 250
44 27 9 32 14 26 32 -10 34 -16 36 -59 20z"/>
<path d="M675 1126 c-43 -19 -93 -79 -101 -123 -5 -27 -2 -46 12 -73 17 -31
29 -38 109 -66 122 -41 123 -41 135 -80 14 -41 -7 -131 -47 -208 -42 -77 -164
-195 -251 -240 -41 -21 -76 -35 -79 -32 -8 7 23 131 64 256 32 98 33 106 16
118 -9 7 -22 11 -27 9 -16 -5 -51 -111 -98 -295 -35 -134 -42 -172 -31 -172
36 0 172 55 233 94 164 106 281 286 283 435 1 89 -44 136 -163 166 -100 26
-118 50 -80 112 30 50 52 58 133 43 62 -11 71 -15 89 -46 14 -24 27 -34 45
-34 23 0 25 3 19 33 -10 49 -54 87 -122 103 -73 17 -100 17 -139 0z"/>
<path d="M1364 1033 c-19 -3 -22 -13 -26 -63 -3 -46 -12 -70 -41 -113 l-36
-55 -66 21 c-85 27 -97 20 -107 -59 -4 -32 -10 -68 -13 -80 -3 -15 2 -24 20
-32 29 -13 32 -9 45 59 6 29 12 54 14 57 2 2 30 -5 61 -14 l57 -18 32 35 c17
19 41 48 54 65 l22 29 -5 -65 c-14 -154 -73 -278 -185 -391 -98 -99 -143 -123
-304 -163 -142 -36 -166 -46 -235 -96 l-44 -32 21 -20 20 -20 44 30 c35 24
110 62 123 62 2 0 17 -22 34 -50 l31 -50 -66 0 -65 0 3 -27 3 -28 303 -3 302
-2 0 30 0 30 -77 0 -78 0 -55 91 -54 91 29 21 c64 46 160 145 202 209 102 158
132 338 84 516 -7 23 -15 41 -19 41 -4 -1 -17 -4 -28 -6z m-275 -882 c22 -38
41 -72 41 -75 0 -3 -41 -6 -90 -6 l-90 0 -35 55 c-19 30 -35 57 -35 60 0 3 12
5 28 5 15 1 50 9 77 18 28 10 53 17 56 15 4 -1 25 -34 48 -72z"/>
</g>
</svg>
